# xmcd
#
# Track frame offsets:
#	150
#	16753
#	43153
#	60083
#	75572
#	93272
#	115946
#	129600
#	147564
#
# Disc length: 2302 seconds
#
# Revision: 1
# Processed by: cddbd v1.5.2PL0 Copyright (c) Steve Scherf et al.
# Submitted via: audiograbber 1.83.01
#
DISCID=6d08fc09
DTITLE=King Of The Tramps - Joyful Noise
DYEAR=2014
DGENRE=
TTITLE0=Weather
TTITLE1=War
TTITLE2=Rain
TTITLE3=Wandring Kind
TTITLE4=Deadman
TTITLE5=Cowboy Boots
TTITLE6=Rock Island Line
TTITLE7=Six Bullets
TTITLE8=Joyful Noise
EXTD=
EXTT0=
EXTT1=
EXTT2=
EXTT3=
EXTT4=
EXTT5=
EXTT6=
EXTT7=
EXTT8=
PLAYORDER=
